<svg width="20" height="14" fill="none" xmlns="http://www.w3.org/2000/svg"><path d="M19.583 2.422a2.322 2.322 0 00-.638-1.058A2.541 2.541 0 0017.83.746C16.265.333 9.995.333 9.995.333A63.853 63.853 0 002.17.725a2.633 2.633 0 00-1.115.633 2.414 2.414 0 00-.648 1.064A24.242 24.242 0 000 7c-.01 1.534.126 3.067.407 4.578.114.4.336.764.646 1.058.309.294.694.506 1.117.619 1.586.412 7.825.412 7.825.412 2.617.03 5.234-.101 7.835-.392.418-.108.802-.32 1.115-.618.308-.295.527-.66.637-1.059.288-1.509.428-3.043.418-4.579a22.147 22.147 0 00-.417-4.597zM8.002 9.853V4.147l5.216 2.854-5.216 2.852z" fill="#fff"/></svg>